<svg width="32" height="32" viewBox="0 0 32 32" fill="none" xmlns="http://www.w3.org/2000/svg">
<g clip-path="url(#clip0_1153_4048)">
<path d="M10.1781 17.4292C10.6738 17.5126 12.1764 17.7306 14.3333 17.7306C17 17.7306 13 15.7306 13 15.7306L10.1585 17.3092C10.1043 17.3393 10.1169 17.4189 10.1781 17.4292Z" fill="#D47E2A"/>
<path d="M10.1559 10.9659L21.1559 4.05166C21.3779 3.91212 21.6667 4.07167 21.6667 4.33387V10.8705C21.6667 10.9901 21.6026 11.1006 21.4987 11.1599L10.4987 17.4457C10.2765 17.5726 10 17.4122 10 17.1562V11.2482C10 11.1335 10.0589 11.0269 10.1559 10.9659Z" fill="#E8924E"/>
<path d="M21.4965 14.7873C21.06 14.7007 19.7834 14.4906 17.6667 14.4906C15 14.4906 18.6667 16.3973 18.6667 16.3973L21.5117 14.9052C21.5659 14.8768 21.5566 14.7992 21.4965 14.7873Z" fill="#058A3C"/>
<path d="M21.5107 21.2553L10.5107 28.1696C10.2887 28.3091 10 28.1496 10 27.8874V21.3507C10 21.2311 10.0641 21.1207 10.168 21.0613L21.168 14.7756C21.3902 14.6486 21.6667 14.8091 21.6667 15.065V20.9731C21.6667 21.0877 21.6078 21.1943 21.5107 21.2553Z" fill="#19AB56"/>
<path d="M28.5589 5.17529C28.8988 5.17529 29.224 5.23974 29.5345 5.36865C29.8451 5.4917 30.0999 5.68506 30.2992 5.94873C30.5042 6.20654 30.6068 6.5376 30.6068 6.94189C30.6068 7.30517 30.5013 7.61279 30.2904 7.86474C30.0853 8.1167 29.8216 8.30713 29.4993 8.43603C29.1829 8.55908 28.8548 8.6206 28.515 8.6206C28.4095 8.6206 28.2689 8.61474 28.0931 8.60303L30.8353 11.064H29.6224L27.0911 8.60303V11.064H26.3001V5.17529H28.5589ZM27.0911 5.92236V7.81201C27.2845 7.86474 27.4954 7.90576 27.724 7.93506C27.9525 7.96435 28.1781 7.979 28.4007 7.979C28.846 7.979 29.1888 7.88525 29.429 7.69775C29.6751 7.51025 29.7982 7.2583 29.7982 6.94189C29.7982 6.61377 29.6634 6.36181 29.3939 6.18603C29.1302 6.01025 28.8079 5.92236 28.4271 5.92236H27.0911Z" fill="#FCFCFD"/>
<path d="M33.2171 6.58154C33.6683 6.58154 34.0433 6.67529 34.3421 6.86279C34.6409 7.05029 34.8636 7.30517 35.0101 7.62744C35.1624 7.94971 35.2386 8.31299 35.2386 8.71728V9.14795H31.8636C31.8988 9.39404 31.9837 9.61963 32.1185 9.82471C32.2533 10.0298 32.429 10.1938 32.6458 10.3169C32.8626 10.4341 33.1117 10.4927 33.3929 10.4927C33.7093 10.4927 34.0052 10.4136 34.2806 10.2554C34.556 10.0913 34.7874 9.9126 34.9749 9.71924L34.9661 10.5015C34.8841 10.6011 34.7611 10.7065 34.597 10.8179C34.4388 10.9233 34.2542 11.0112 34.0433 11.0815C33.8382 11.1577 33.6214 11.1958 33.3929 11.1958C32.9476 11.1958 32.5521 11.0903 32.2064 10.8794C31.8607 10.6685 31.5882 10.3901 31.389 10.0444C31.1956 9.69287 31.099 9.30908 31.099 8.89306C31.099 8.47705 31.1898 8.09326 31.3714 7.7417C31.5531 7.39014 31.8021 7.10889 32.1185 6.89795C32.4408 6.68701 32.807 6.58154 33.2171 6.58154ZM33.2171 7.28467C32.8538 7.28467 32.555 7.40771 32.3206 7.65381C32.0863 7.89404 31.9398 8.18701 31.8812 8.53271H34.5267C34.4974 8.2456 34.4154 8.01123 34.2806 7.82959C34.1517 7.64795 33.9935 7.51318 33.806 7.42529C33.6185 7.33154 33.4222 7.28467 33.2171 7.28467Z" fill="#FCFCFD"/>
<path d="M38.2357 6.58154C38.4876 6.58154 38.7425 6.64306 39.0003 6.76611C39.264 6.8833 39.4896 7.04736 39.6771 7.2583V6.66943H40.3978V13.1733H39.6771V10.3169C39.5247 10.5513 39.3167 10.7563 39.0531 10.9321C38.7952 11.1079 38.4993 11.1958 38.1654 11.1958C37.7904 11.1958 37.4476 11.102 37.137 10.9145C36.8265 10.7212 36.5775 10.4546 36.39 10.1147C36.2083 9.7749 36.1175 9.38232 36.1175 8.93701C36.1175 8.45068 36.2083 8.03174 36.39 7.68017C36.5775 7.32861 36.8324 7.05908 37.1546 6.87158C37.4769 6.67822 37.8372 6.58154 38.2357 6.58154ZM38.3675 7.29346C38.0511 7.29346 37.7816 7.37256 37.5589 7.53076C37.3363 7.6831 37.1634 7.88525 37.0404 8.13721C36.9232 8.3833 36.8646 8.6499 36.8646 8.93701C36.8646 9.21826 36.9232 9.47607 37.0404 9.71045C37.1576 9.94482 37.3216 10.1323 37.5326 10.2729C37.7493 10.4136 37.9984 10.4839 38.2796 10.4839C38.5492 10.4839 38.7894 10.4136 39.0003 10.2729C39.2113 10.1323 39.3783 9.93896 39.5013 9.69287C39.6243 9.44678 39.6829 9.16846 39.6771 8.85791L39.6683 8.01416C39.4867 7.78564 39.2904 7.60986 39.0794 7.48681C38.8743 7.35791 38.637 7.29346 38.3675 7.29346Z" fill="#FCFCFD"/>
<path d="M45.4867 6.66943V9.27099C45.4867 9.65771 45.4046 9.9917 45.2406 10.2729C45.0765 10.5542 44.8538 10.771 44.5726 10.9233C44.2913 11.0757 43.9749 11.1519 43.6234 11.1519C43.2718 11.1519 42.9554 11.0757 42.6742 10.9233C42.3929 10.771 42.1702 10.5542 42.0062 10.2729C41.8421 9.9917 41.7601 9.65771 41.7601 9.27099V6.66943H42.5072V9.27099C42.5072 9.65185 42.6185 9.94482 42.8411 10.1499C43.0697 10.3491 43.3304 10.4487 43.6234 10.4487C43.9163 10.4487 44.1742 10.3491 44.3968 10.1499C44.6253 9.94482 44.7396 9.65185 44.7396 9.27099V6.66943H45.4867Z" fill="#FCFCFD"/>
<path d="M48.6595 6.58154C49.1107 6.58154 49.4857 6.67529 49.7845 6.86279C50.0833 7.05029 50.306 7.30517 50.4525 7.62744C50.6048 7.94971 50.681 8.31299 50.681 8.71728V9.14795H47.306C47.3411 9.39404 47.4261 9.61963 47.5609 9.82471C47.6956 10.0298 47.8714 10.1938 48.0882 10.3169C48.305 10.4341 48.554 10.4927 48.8353 10.4927C49.1517 10.4927 49.4476 10.4136 49.723 10.2554C49.9984 10.0913 50.2298 9.9126 50.4173 9.71924L50.4085 10.5015C50.3265 10.6011 50.2034 10.7065 50.0394 10.8179C49.8812 10.9233 49.6966 11.0112 49.4857 11.0815C49.2806 11.1577 49.0638 11.1958 48.8353 11.1958C48.39 11.1958 47.9945 11.0903 47.6488 10.8794C47.3031 10.6685 47.0306 10.3901 46.8314 10.0444C46.638 9.69287 46.5413 9.30908 46.5413 8.89306C46.5413 8.47705 46.6322 8.09326 46.8138 7.7417C46.9954 7.39014 47.2445 7.10889 47.5609 6.89795C47.8831 6.68701 48.2493 6.58154 48.6595 6.58154ZM48.6595 7.28467C48.2962 7.28467 47.9974 7.40771 47.763 7.65381C47.5286 7.89404 47.3822 8.18701 47.3236 8.53271H49.9691C49.9398 8.2456 49.8577 8.01123 49.723 7.82959C49.5941 7.64795 49.4359 7.51318 49.2484 7.42529C49.0609 7.33154 48.8646 7.28467 48.6595 7.28467Z" fill="#FCFCFD"/>
<path d="M53.1771 6.58154C53.4349 6.58154 53.6751 6.61963 53.8978 6.6958C54.1204 6.76611 54.2816 6.83935 54.3812 6.91553V7.68896C54.2581 7.59521 54.0911 7.50439 53.8802 7.4165C53.6693 7.32861 53.4525 7.28467 53.2298 7.28467C52.9544 7.28467 52.7464 7.34912 52.6058 7.47803C52.471 7.60693 52.4036 7.7417 52.4036 7.88232C52.4036 7.99365 52.4417 8.10791 52.5179 8.2251C52.5999 8.33642 52.7406 8.42724 52.9398 8.49756L53.6781 8.76123C53.9652 8.86084 54.179 9.00439 54.3197 9.19189C54.4603 9.37939 54.5306 9.59912 54.5306 9.85107C54.5306 10.0972 54.4603 10.3228 54.3197 10.5278C54.1849 10.7329 53.9945 10.897 53.7484 11.02C53.5081 11.1372 53.2298 11.1958 52.9134 11.1958C52.7435 11.1958 52.5648 11.1724 52.3773 11.1255C52.1956 11.0845 52.0316 11.0347 51.8851 10.9761C51.7386 10.9116 51.6302 10.856 51.5599 10.8091V10.0356C51.6419 10.0942 51.7562 10.1616 51.9027 10.2378C52.055 10.3081 52.2161 10.3696 52.3861 10.4224C52.556 10.4692 52.7142 10.4927 52.8607 10.4927C53.1361 10.4927 53.3529 10.4312 53.5111 10.3081C53.6751 10.1851 53.7572 10.0327 53.7572 9.85107C53.7572 9.71045 53.7015 9.59912 53.5902 9.51709C53.4847 9.43506 53.3294 9.35596 53.1243 9.27978L52.474 9.04248C52.1341 8.91357 51.9085 8.75244 51.7972 8.55908C51.6859 8.35986 51.6302 8.13428 51.6302 7.88232C51.6302 7.50732 51.7708 7.19678 52.0521 6.95068C52.3333 6.70459 52.7083 6.58154 53.1771 6.58154Z" fill="#FCFCFD"/>
<path d="M56.8421 5.40381V6.66943H58.1253V7.34619H56.8421V9.92139C56.8421 10.103 56.889 10.2466 56.9827 10.352C57.0765 10.4575 57.22 10.5103 57.4134 10.5103C57.5892 10.5103 57.7357 10.4897 57.8529 10.4487C57.97 10.4019 58.0726 10.352 58.1605 10.2993V10.8882C58.0433 10.9819 57.9173 11.0552 57.7825 11.1079C57.6536 11.1665 57.4779 11.1958 57.2552 11.1958C56.8802 11.1958 56.596 11.0845 56.4027 10.8618C56.2152 10.6333 56.1214 10.3315 56.1214 9.95654V7.34619H55.2777V7.13525C55.5648 7.00635 55.805 6.79541 55.9984 6.50244C56.1917 6.20361 56.3617 5.8374 56.5081 5.40381H56.8421Z" fill="#FCFCFD"/>
<path d="M28.8402 15.7101C29.2093 15.7101 29.5286 15.7629 29.7982 15.8683C30.0677 15.9679 30.3021 16.1056 30.5013 16.2814V17.5119C30.3607 17.4064 30.2142 17.3039 30.0618 17.2043C29.9095 17.1047 29.7367 17.0226 29.5433 16.9582C29.3558 16.8937 29.1331 16.8615 28.8753 16.8615C28.5238 16.8615 28.2044 16.9464 27.9173 17.1164C27.6302 17.2863 27.4017 17.5148 27.2318 17.8019C27.0618 18.089 26.9769 18.4172 26.9769 18.7863C26.9769 19.1496 27.0618 19.4777 27.2318 19.7707C27.4017 20.0578 27.6302 20.2863 27.9173 20.4562C28.2044 20.6203 28.5238 20.7023 28.8753 20.7023C29.2679 20.7023 29.596 20.6437 29.8597 20.5265C30.1292 20.4035 30.3724 20.2541 30.5892 20.0783V21.2648C30.39 21.4464 30.1409 21.5929 29.8421 21.7043C29.5433 21.8097 29.2093 21.8625 28.8402 21.8625C28.4183 21.8625 28.0199 21.7892 27.6449 21.6427C27.2699 21.4904 26.9388 21.2795 26.6517 21.0099C26.3646 20.7345 26.139 20.4093 25.9749 20.0343C25.8109 19.6593 25.7288 19.2433 25.7288 18.7863C25.7288 18.3293 25.8109 17.9132 25.9749 17.5382C26.139 17.1632 26.3646 16.841 26.6517 16.5714C26.9388 16.2961 27.2699 16.0851 27.6449 15.9386C28.0199 15.7863 28.4183 15.7101 28.8402 15.7101Z" fill="#FCFCFD"/>
<path d="M34.1312 17.1779C34.5824 17.1779 34.9603 17.3302 35.265 17.6349C35.5697 17.9396 35.722 18.3966 35.722 19.006V21.7306H34.6058L34.597 19.1554C34.597 18.8566 34.5238 18.6339 34.3773 18.4875C34.2367 18.341 34.0404 18.2677 33.7884 18.2677C33.5892 18.2677 33.4017 18.3322 33.2259 18.4611C33.056 18.59 32.9095 18.7423 32.7865 18.9181V21.7306H31.6702V15.4025H32.7865V17.925C32.9212 17.7433 33.1029 17.5734 33.3314 17.4152C33.5658 17.257 33.8324 17.1779 34.1312 17.1779Z" fill="#FCFCFD"/>
<path d="M38.763 17.1779C39.0033 17.1779 39.2464 17.2336 39.4925 17.3449C39.7386 17.4562 39.9437 17.6056 40.1077 17.7931V17.2922H41.224V21.7306H40.1077V20.9836C39.9788 21.2238 39.7913 21.4318 39.5452 21.6076C39.2992 21.7775 39.012 21.8625 38.6839 21.8625C38.3265 21.8625 37.9954 21.7716 37.6908 21.59C37.3919 21.4084 37.1517 21.1447 36.9701 20.799C36.7884 20.4533 36.6976 20.0343 36.6976 19.5422C36.6976 19.05 36.7884 18.6281 36.9701 18.2765C37.1576 17.925 37.4066 17.6554 37.7171 17.4679C38.0335 17.2746 38.3822 17.1779 38.763 17.1779ZM38.9915 18.2677C38.7572 18.2677 38.555 18.3293 38.3851 18.4523C38.221 18.5695 38.0921 18.7248 37.9984 18.9181C37.9046 19.1115 37.8577 19.3195 37.8577 19.5422C37.8577 19.8761 37.9574 20.1603 38.1566 20.3947C38.3617 20.6291 38.6312 20.7463 38.9652 20.7463C39.1644 20.7463 39.349 20.6935 39.5189 20.5881C39.6947 20.4826 39.8353 20.3361 39.9408 20.1486C40.0521 19.9552 40.1077 19.7238 40.1077 19.4543V18.8214C39.9495 18.6515 39.7767 18.5168 39.5892 18.4172C39.4076 18.3175 39.2083 18.2677 38.9915 18.2677Z" fill="#FCFCFD"/>
<path d="M45.39 18.5402C45.2025 18.4347 45.0062 18.382 44.8011 18.382C44.5433 18.382 44.3294 18.467 44.1595 18.6369C43.9896 18.8009 43.8402 19.006 43.7113 19.2521V21.7306H42.5951V17.2922H43.7113V18.1271C43.8636 17.8634 44.0423 17.6437 44.2474 17.4679C44.4583 17.2922 44.6956 17.2043 44.9593 17.2043C45.1175 17.2043 45.2611 17.2306 45.39 17.2834V18.5402Z" fill="#FCFCFD"/>
<path d="M48.0091 17.1779C48.2493 17.1779 48.4925 17.2336 48.7386 17.3449C48.9847 17.4562 49.1898 17.6056 49.3538 17.7931V17.2922H50.47V21.6164C50.47 22.1203 50.3587 22.5451 50.1361 22.8908C49.9134 23.2423 49.6175 23.5089 49.2484 23.6906C48.8792 23.8781 48.4749 23.9718 48.0355 23.9718C47.6429 23.9718 47.3206 23.9132 47.0687 23.7961C46.8167 23.6789 46.5824 23.5441 46.3656 23.3918V22.3371C46.5003 22.4191 46.6409 22.507 46.7874 22.6007C46.9398 22.6945 47.1097 22.7736 47.2972 22.8381C47.4906 22.9025 47.7132 22.9347 47.9652 22.9347C48.2288 22.9347 48.4661 22.8849 48.6771 22.7853C48.888 22.6857 49.0521 22.5451 49.1693 22.3634C49.2923 22.1877 49.3538 21.9855 49.3538 21.757V20.9836C49.2249 21.2238 49.0374 21.4318 48.7913 21.6076C48.5452 21.7775 48.2581 21.8625 47.93 21.8625C47.5726 21.8625 47.2415 21.7716 46.9368 21.59C46.638 21.4084 46.3978 21.1447 46.2161 20.799C46.0345 20.4533 45.9437 20.0343 45.9437 19.5422C45.9437 19.05 46.0345 18.6281 46.2161 18.2765C46.4036 17.925 46.6527 17.6554 46.9632 17.4679C47.2796 17.2746 47.6283 17.1779 48.0091 17.1779ZM48.2376 18.2765C48.0033 18.2765 47.8011 18.3381 47.6312 18.4611C47.4671 18.5783 47.3382 18.7336 47.2445 18.9269C47.1507 19.1144 47.1038 19.3195 47.1038 19.5422C47.1038 19.8761 47.2034 20.1603 47.4027 20.3947C47.6077 20.6232 47.8773 20.7375 48.2113 20.7375C48.4105 20.7375 48.595 20.6877 48.765 20.5881C48.9408 20.4826 49.0814 20.3361 49.1868 20.1486C49.2982 19.9552 49.3538 19.7238 49.3538 19.4543V18.8214C49.1956 18.6515 49.0228 18.5197 48.8353 18.4259C48.6536 18.3263 48.4544 18.2765 48.2376 18.2765Z" fill="#FCFCFD"/>
<path d="M53.7835 17.1779C54.2171 17.1779 54.5892 17.2716 54.8997 17.4591C55.2161 17.6466 55.4564 17.9074 55.6204 18.2414C55.7904 18.5695 55.8753 18.9504 55.8753 19.3839V19.8586H52.6585C52.7171 20.1574 52.8636 20.3976 53.098 20.5793C53.3324 20.7609 53.6195 20.8517 53.9593 20.8517C54.2816 20.8517 54.5745 20.7873 54.8382 20.6584C55.1019 20.5295 55.3128 20.3976 55.471 20.2629L55.4622 21.3C55.3216 21.423 55.1107 21.549 54.8294 21.6779C54.554 21.8009 54.2493 21.8625 53.9154 21.8625C53.4759 21.8625 53.0745 21.7629 52.7113 21.5636C52.3538 21.3644 52.0667 21.092 51.8499 20.7463C51.639 20.4006 51.5335 20.005 51.5335 19.5597C51.5335 19.1261 51.6302 18.7306 51.8236 18.3732C52.0169 18.0158 52.2835 17.7287 52.6234 17.5119C52.9632 17.2892 53.3499 17.1779 53.7835 17.1779ZM53.7572 18.1535C53.4818 18.1535 53.2503 18.2384 53.0628 18.4084C52.8753 18.5783 52.7464 18.8068 52.6761 19.0939H54.8031C54.7796 18.7775 54.6624 18.5431 54.4515 18.3908C54.2406 18.2326 54.0091 18.1535 53.7572 18.1535Z" fill="#FCFCFD"/>
<path d="M59.3558 17.1779C59.7367 17.1779 60.0824 17.2746 60.3929 17.4679C60.7093 17.6554 60.9583 17.925 61.14 18.2765C61.3275 18.6281 61.4212 19.05 61.4212 19.5422C61.4212 20.0343 61.3275 20.4533 61.14 20.799C60.9583 21.1447 60.7152 21.4084 60.4105 21.59C60.1117 21.7716 59.7865 21.8625 59.4349 21.8625C59.1068 21.8625 58.8197 21.7775 58.5736 21.6076C58.3275 21.4318 58.14 21.2238 58.0111 20.9836V21.7306H56.8949V15.4025H58.0111V17.7931C58.1751 17.6056 58.3773 17.4562 58.6175 17.3449C58.8636 17.2336 59.1097 17.1779 59.3558 17.1779ZM59.1273 18.2765C58.9105 18.2765 58.7083 18.3263 58.5208 18.4259C58.3392 18.5197 58.1693 18.6515 58.0111 18.8214V19.4543C58.0052 19.7238 58.055 19.9552 58.1605 20.1486C58.2718 20.3361 58.4154 20.4826 58.5911 20.5881C58.7669 20.6877 58.9544 20.7375 59.1536 20.7375C59.4876 20.7375 59.7542 20.6232 59.9534 20.3947C60.1585 20.1603 60.2611 19.8761 60.2611 19.5422C60.2611 19.3195 60.2142 19.1144 60.1204 18.9269C60.0267 18.7336 59.8949 18.5783 59.7249 18.4611C59.555 18.3381 59.3558 18.2765 59.1273 18.2765Z" fill="#FCFCFD"/>
<path d="M64.2425 17.1779C64.4827 17.1779 64.7259 17.2336 64.972 17.3449C65.2181 17.4562 65.4232 17.6056 65.5872 17.7931V17.2922H66.7034V21.7306H65.5872V20.9836C65.4583 21.2238 65.2708 21.4318 65.0247 21.6076C64.7786 21.7775 64.4915 21.8625 64.1634 21.8625C63.806 21.8625 63.4749 21.7716 63.1702 21.59C62.8714 21.4084 62.6312 21.1447 62.4495 20.799C62.2679 20.4533 62.1771 20.0343 62.1771 19.5422C62.1771 19.05 62.2679 18.6281 62.4495 18.2765C62.637 17.925 62.8861 17.6554 63.1966 17.4679C63.513 17.2746 63.8617 17.1779 64.2425 17.1779ZM64.471 18.2677C64.2367 18.2677 64.0345 18.3293 63.8646 18.4523C63.7005 18.5695 63.5716 18.7248 63.4779 18.9181C63.3841 19.1115 63.3372 19.3195 63.3372 19.5422C63.3372 19.8761 63.4368 20.1603 63.6361 20.3947C63.8411 20.6291 64.1107 20.7463 64.4447 20.7463C64.6439 20.7463 64.8284 20.6935 64.9984 20.5881C65.1742 20.4826 65.3148 20.3361 65.4202 20.1486C65.5316 19.9552 65.5872 19.7238 65.5872 19.4543V18.8214C65.429 18.6515 65.2562 18.5168 65.0687 18.4172C64.887 18.3175 64.6878 18.2677 64.471 18.2677Z" fill="#FCFCFD"/>
<path d="M70.096 17.1779C70.4242 17.1779 70.6937 17.2306 70.9046 17.3361C71.1156 17.4416 71.2825 17.5441 71.4056 17.6437V18.672C71.2533 18.5607 71.0804 18.467 70.887 18.3908C70.6995 18.3146 70.4681 18.2765 70.1927 18.2765C69.97 18.2765 69.762 18.3322 69.5687 18.4435C69.3812 18.5548 69.2318 18.7043 69.1204 18.8918C69.0091 19.0793 68.9534 19.2931 68.9534 19.5334C68.9534 19.8966 69.0706 20.1955 69.305 20.4298C69.5394 20.6642 69.8353 20.7814 70.1927 20.7814C70.4681 20.7814 70.6995 20.7463 70.887 20.6759C71.0804 20.5998 71.2533 20.506 71.4056 20.3947V21.4142C71.2825 21.5197 71.1156 21.6222 70.9046 21.7218C70.6937 21.8156 70.4242 21.8625 70.096 21.8625C69.6449 21.8625 69.2435 21.757 68.8919 21.5461C68.5462 21.3293 68.2708 21.0451 68.0658 20.6935C67.8665 20.3361 67.7669 19.9494 67.7669 19.5334C67.7669 19.2228 67.8226 18.9269 67.9339 18.6457C68.0511 18.3644 68.2152 18.1154 68.4261 17.8986C68.637 17.6759 68.8831 17.5002 69.1644 17.3713C69.4515 17.2423 69.762 17.1779 70.096 17.1779Z" fill="#FCFCFD"/>
<path d="M73.515 15.4025V19.2697L75.3255 17.2922H76.723L74.807 19.217L76.8197 21.7306H75.4134L74.0687 19.964L73.515 20.5177V21.7306H72.3988V15.4025H73.515Z" fill="#FCFCFD"/>
</g>
<defs>
<clipPath id="clip0_1153_4048">
<rect width="12" height="24" fill="white" transform="translate(10 4)"/>
</clipPath>
</defs>
</svg>
