<svg width="25" height="24" viewBox="0 0 25 24" fill="none" xmlns="http://www.w3.org/2000/svg">
<g clip-path="url(#clip0_854_2436)">
<path d="M12.5 24C19.1274 24 24.5 18.6274 24.5 12C24.5 5.37258 19.1274 0 12.5 0C5.87258 0 0.5 5.37258 0.5 12C0.5 18.6274 5.87258 24 12.5 24Z" fill="#F0F0F0"/>
<path d="M0.5 12C0.5 5.37262 5.87262 0 12.5 0C19.1274 0 24.5 5.37262 24.5 12" fill="#D80027"/>
<path d="M7.80396 6.26101C7.80396 4.51267 9.03269 3.05214 10.6735 2.69378C10.4213 2.63875 10.1597 2.60889 9.89088 2.60889C7.8738 2.60889 6.23871 4.24398 6.23871 6.26106C6.23871 8.27814 7.8738 9.91323 9.89088 9.91323C10.1596 9.91323 10.4213 9.88337 10.6735 9.82829C9.03269 9.46993 7.80396 8.0094 7.80396 6.26101Z" fill="#F0F0F0"/>
<path d="M12.4996 2.87L12.7587 3.66711H13.5968L12.9187 4.15981L13.1777 4.95692L12.4996 4.46431L11.8215 4.95692L12.0806 4.15981L11.4025 3.66711H12.2406L12.4996 2.87Z" fill="#F0F0F0"/>
<path d="M10.4665 4.43469L10.7255 5.23185H11.5637L10.8856 5.7245L11.1446 6.52161L10.4665 6.029L9.78832 6.52161L10.0474 5.7245L9.36926 5.23185H10.2074L10.4665 4.43469Z" fill="#F0F0F0"/>
<path d="M14.533 4.43469L14.7921 5.23185H15.6302L14.9521 5.7245L15.2112 6.52161L14.533 6.029L13.8549 6.52161L14.1139 5.7245L13.4359 5.23185H14.274L14.533 4.43469Z" fill="#F0F0F0"/>
<path d="M13.7505 6.78345L14.0096 7.5806H14.8477L14.1696 8.07326L14.4286 8.87037L13.7505 8.37776L13.0724 8.87037L13.3315 8.07326L12.6534 7.5806H13.4915L13.7505 6.78345Z" fill="#F0F0F0"/>
<path d="M11.2489 6.78345L11.5079 7.5806H12.3461L11.6679 8.07326L11.927 8.87037L11.2489 8.37776L10.5707 8.87037L10.8298 8.07326L10.1517 7.5806H10.9898L11.2489 6.78345Z" fill="#F0F0F0"/>
</g>
<defs>
<clipPath id="clip0_854_2436">
<rect width="24" height="24" fill="white" transform="translate(0.5)"/>
</clipPath>
</defs>
</svg>
