<svg width="25" height="24" viewBox="0 0 25 24" fill="none" xmlns="http://www.w3.org/2000/svg">
<g clip-path="url(#clip0_854_1807)">
<path d="M12.5 24C19.1274 24 24.5 18.6274 24.5 12C24.5 5.37258 19.1274 0 12.5 0C5.87258 0 0.5 5.37258 0.5 12C0.5 18.6274 5.87258 24 12.5 24Z" fill="#F0F0F0"/>
<path d="M7.28265 16.1729L8.32614 23.2527C9.62608 23.7351 11.0322 23.999 12.5 23.999C17.6596 23.999 22.0581 20.7425 23.7536 16.1729H7.28265Z" fill="black"/>
<path d="M7.28265 7.8266L8.32614 0.746785C9.62608 0.264394 11.0322 0.000488281 12.5 0.000488281C17.6596 0.000488281 22.0581 3.25699 23.7536 7.8266H7.28265Z" fill="#6DA544"/>
<path d="M0.500427 11.9999C0.500427 17.1595 3.75697 21.558 8.32654 23.2536V0.746338C3.75697 2.44185 0.500427 6.84037 0.500427 11.9999Z" fill="#A2001D"/>
</g>
<defs>
<clipPath id="clip0_854_1807">
<rect width="24" height="24" fill="white" transform="translate(0.5)"/>
</clipPath>
</defs>
</svg>
