<svg width="25" height="24" viewBox="0 0 25 24" fill="none" xmlns="http://www.w3.org/2000/svg">
<g clip-path="url(#clip0_854_143)">
<path d="M12.5 24C19.1274 24 24.5 18.6274 24.5 12C24.5 5.37258 19.1274 0 12.5 0C5.87258 0 0.5 5.37258 0.5 12C0.5 18.6274 5.87258 24 12.5 24Z" fill="#F0F0F0"/>
<path d="M24.5008 12.0011C24.5008 7.24352 21.7322 3.13277 17.7182 1.19177V22.8103C21.7322 20.8693 24.5008 16.7586 24.5008 12.0011Z" fill="#D80027"/>
<path d="M0.500427 12.0004C0.500427 16.758 3.2691 20.8687 7.28305 22.8097V1.19116C3.2691 3.13216 0.500427 7.24291 0.500427 12.0004Z" fill="#D80027"/>
<path d="M14.5875 13.5663L16.6744 12.5228L15.631 12.001V10.9576L13.544 12.001L14.5875 9.91408H13.544L12.5006 8.34888L11.4571 9.91408H10.4136L11.4571 12.001L9.3701 10.9576V12.001L8.32666 12.5228L10.4136 13.5663L9.89186 14.6097H11.9788V16.1749H13.0223V14.6097H15.1092L14.5875 13.5663Z" fill="#D80027"/>
</g>
<defs>
<clipPath id="clip0_854_143">
<rect width="24" height="24" fill="white" transform="translate(0.5)"/>
</clipPath>
</defs>
</svg>
