<svg width="25" height="24" viewBox="0 0 25 24" fill="none" xmlns="http://www.w3.org/2000/svg">
<g clip-path="url(#clip0_854_2248)">
<path d="M24.5 12C24.5 18.6274 19.1274 24 12.5 24C5.87262 24 0.5 18.6274 0.5 12C0.5 12.0028 12.5 0.00135937 12.5 0C19.1274 0 24.5 5.37262 24.5 12Z" fill="#0052B4"/>
<path d="M12.4678 12.0004H12.4999C12.4999 11.9895 12.4999 11.9791 12.4999 11.9683C12.4892 11.979 12.4785 11.9897 12.4678 12.0004Z" fill="#F0F0F0"/>
<path d="M12.4997 6.26171C12.4997 4.15023 12.4997 2.76662 12.4997 0.000854492H12.4977C5.87125 0.00193262 0.499756 5.37404 0.499756 12.0008H6.76061V8.47524L10.2862 12.0008H12.4677C12.4784 11.9901 12.4891 11.9794 12.4998 11.9687C12.4998 11.1602 12.4998 10.4389 12.4998 9.78732L8.97419 6.26171H12.4997Z" fill="#F0F0F0"/>
<path d="M6.57112 1.56567C4.69429 2.63438 3.13401 4.19466 2.06531 6.07149V12.0005H5.19576V4.69617V4.69613H12.5001C12.5001 3.7088 12.5001 2.76821 12.5001 1.56567H6.57112Z" fill="#D80027"/>
<path d="M12.5004 10.5249L8.23696 6.2615H6.76129C6.76129 6.26145 6.76129 6.2615 6.76129 6.2615L12.5003 12.0005H12.5004C12.5004 12.0005 12.5004 10.9831 12.5004 10.5249Z" fill="#D80027"/>
<path d="M7.73753 14.0864L8.39613 15.4635L9.88333 15.1198L9.21733 16.4933L10.4133 17.4417L8.92422 17.7774L8.92839 19.3038L7.73753 18.3488L6.54672 19.3038L6.55089 17.7774L5.06177 17.4417L6.25778 16.4933L5.59169 15.1198L7.07899 15.4635L7.73753 14.0864Z" fill="#F0F0F0"/>
<path d="M18.4671 16.6954L18.7964 17.384L19.54 17.2121L19.2069 17.8989L19.805 18.3731L19.0604 18.5409L19.0625 19.3041L18.4671 18.8266L17.8717 19.3041L17.8737 18.5409L17.1292 18.3731L17.7272 17.8989L17.3942 17.2121L18.1378 17.384L18.4671 16.6954Z" fill="#F0F0F0"/>
<path d="M15.4034 9.39148L15.7326 10.0801L16.4763 9.90814L16.1433 10.5949L16.7413 11.0691L15.9967 11.2369L15.9988 12.0002L15.4034 11.5227L14.808 12.0002L14.81 11.2369L14.0655 11.0691L14.6635 10.5949L14.3305 9.90814L15.0741 10.0801L15.4034 9.39148Z" fill="#F0F0F0"/>
<path d="M18.4671 5.21765L18.7964 5.90625L19.54 5.73436L19.207 6.42112L19.8049 6.89531L19.0604 7.06317L19.0625 7.82639L18.4671 7.34887L17.8717 7.82639L17.8737 7.06317L17.1292 6.89531L17.7271 6.42112L17.3942 5.73436L18.1378 5.90625L18.4671 5.21765Z" fill="#F0F0F0"/>
<path d="M21.1422 8.34778L21.4714 9.03637L22.215 8.86443L21.882 9.5512L22.48 10.0254L21.7355 10.1933L21.7375 10.9565L21.1422 10.479L20.5468 10.9565L20.5488 10.1933L19.8043 10.0254L20.4022 9.5512L20.0692 8.86443L20.8128 9.03637L21.1422 8.34778Z" fill="#F0F0F0"/>
<path d="M19.2292 12.0004L19.4882 12.7975H20.3264L19.6483 13.2902L19.9074 14.0873L19.2292 13.5947L18.5511 14.0873L18.8101 13.2902L18.132 12.7975H18.9702L19.2292 12.0004Z" fill="#F0F0F0"/>
</g>
<defs>
<clipPath id="clip0_854_2248">
<rect width="24" height="24" fill="white" transform="translate(0.5)"/>
</clipPath>
</defs>
</svg>
