<svg width="167" height="60" viewBox="0 0 167 60" fill="none" xmlns="http://www.w3.org/2000/svg">
<path d="M1.17948 33.2663C2.4074 33.4728 6.12978 34.013 11.4728 34.013C18.0785 34.013 8.16988 29.0587 8.16988 29.0587L1.13114 32.9691C0.996814 33.0437 1.02795 33.2408 1.17948 33.2663Z" fill="#D47E2A"/>
<path d="M1.1247 17.2558L28.3735 0.127962C28.9234 -0.217684 29.6386 0.177545 29.6386 0.827047V17.0194C29.6386 17.3157 29.4799 17.5893 29.2226 17.7363L1.9738 33.3071C1.42332 33.6216 0.738403 33.2241 0.738403 32.5901V17.9548C0.738403 17.6709 0.884298 17.4069 1.1247 17.2558Z" fill="#E8924E"/>
<path d="M29.2172 26.7219C28.1358 26.5073 24.9734 25.987 19.73 25.987C13.1242 25.987 22.2071 30.7101 22.2071 30.7101L29.2547 27.0141C29.3891 26.9436 29.366 26.7514 29.2172 26.7219Z" fill="#058A3C"/>
<path d="M29.2523 42.7442L2.00355 59.872C1.45366 60.2177 0.738403 59.8225 0.738403 59.173V42.9806C0.738403 42.6843 0.897176 42.4107 1.15445 42.2637L28.4032 26.6929C28.9537 26.3784 29.6386 26.7759 29.6386 27.4099V42.0452C29.6386 42.3291 29.4927 42.5931 29.2523 42.7442Z" fill="#19AB56"/>
<path d="M46.7118 2.91139C47.5537 2.91139 48.3593 3.07105 49.1285 3.39037C49.8978 3.69518 50.5292 4.17416 51.0227 4.82732C51.5307 5.46596 51.7847 6.28604 51.7847 7.28755C51.7847 8.18745 51.5234 8.94947 51.0009 9.5736C50.4929 10.1977 49.8397 10.6695 49.0414 10.9888C48.2577 11.2936 47.4448 11.446 46.603 11.446C46.3417 11.446 45.9934 11.4315 45.5579 11.4024L52.3508 17.4986H49.3462L43.0759 11.4024V17.4986H41.1165V2.91139H46.7118ZM43.0759 4.762V9.44297C43.5549 9.5736 44.0774 9.6752 44.6435 9.74777C45.2096 9.82035 45.7684 9.85663 46.32 9.85663C47.4231 9.85663 48.2722 9.6244 48.8673 9.15993C49.4769 8.69546 49.7817 8.07133 49.7817 7.28755C49.7817 6.47473 49.4479 5.8506 48.7802 5.41516C48.127 4.97972 47.3287 4.762 46.3853 4.762H43.0759Z" fill="#FCFCFD"/>
<path d="M58.251 6.3949C59.3686 6.3949 60.2975 6.62713 61.0378 7.0916C61.778 7.55607 62.3296 8.18745 62.6924 8.98576C63.0698 9.78406 63.2585 10.684 63.2585 11.6855V12.7523H54.8981C54.9852 13.3619 55.1956 13.9207 55.5295 14.4287C55.8633 14.9367 56.2988 15.3432 56.8358 15.648C57.3728 15.9383 57.9897 16.0834 58.6864 16.0834C59.4702 16.0834 60.2032 15.8875 60.8854 15.4956C61.5676 15.0892 62.1409 14.6465 62.6054 14.1675L62.5836 16.1052C62.3804 16.3519 62.0756 16.6132 61.6692 16.889C61.2773 17.1502 60.8201 17.3679 60.2975 17.5421C59.7895 17.7308 59.2525 17.8252 58.6864 17.8252C57.5833 17.8252 56.6036 17.5639 55.7472 17.0414C54.8908 16.5188 54.2159 15.8294 53.7224 14.973C53.2434 14.1022 53.0039 13.1515 53.0039 12.1209C53.0039 11.0904 53.2289 10.1397 53.6789 9.26879C54.1288 8.39791 54.7457 7.70121 55.5295 7.17869C56.3278 6.65616 57.2349 6.3949 58.251 6.3949ZM58.251 8.13665C57.3511 8.13665 56.6108 8.44146 56.0302 9.05107C55.4496 9.64617 55.0868 10.3719 54.9416 11.2283H61.495C61.4224 10.517 61.2192 9.93646 60.8854 9.48651C60.5661 9.03656 60.1742 8.70272 59.7097 8.485C59.2452 8.25277 58.759 8.13665 58.251 8.13665Z" fill="#FCFCFD"/>
<path d="M70.6827 6.3949C71.3069 6.3949 71.9383 6.5473 72.5769 6.85211C73.2301 7.1424 73.7889 7.54881 74.2533 8.07133V6.61262H76.0386V22.7238H74.2533V15.648C73.876 16.2285 73.3607 16.7366 72.7075 17.172C72.0689 17.6074 71.3359 17.8252 70.5086 17.8252C69.5796 17.8252 68.7305 17.5929 67.9613 17.1285C67.192 16.6495 66.5751 15.9891 66.1106 15.1472C65.6607 14.3054 65.4357 13.3329 65.4357 12.2298C65.4357 11.0251 65.6607 9.98726 66.1106 9.11639C66.5751 8.24551 67.2065 7.57784 68.0048 7.11337C68.8031 6.63439 69.6957 6.3949 70.6827 6.3949ZM71.0093 8.15842C70.2255 8.15842 69.5579 8.35437 69.0063 8.74626C68.4547 9.12364 68.0266 9.6244 67.7218 10.2485C67.4315 10.8581 67.2863 11.5186 67.2863 12.2298C67.2863 12.9265 67.4315 13.5651 67.7218 14.1457C68.012 14.7263 68.4185 15.1908 68.941 15.5391C69.478 15.8875 70.0949 16.0616 70.7916 16.0616C71.4593 16.0616 72.0544 15.8875 72.5769 15.5391C73.0994 15.1908 73.5131 14.7118 73.8179 14.1022C74.1227 13.4925 74.2679 12.8031 74.2533 12.0338L74.2316 9.94372C73.7816 9.37765 73.2954 8.94221 72.7728 8.6374C72.2648 8.31808 71.677 8.15842 71.0093 8.15842Z" fill="#FCFCFD"/>
<path d="M88.6446 6.61262V13.0571C88.6446 14.0151 88.4414 14.8424 88.035 15.5391C87.6286 16.2358 87.077 16.7728 86.3803 17.1502C85.6836 17.5276 84.8998 17.7163 84.0289 17.7163C83.1581 17.7163 82.3743 17.5276 81.6776 17.1502C80.9809 16.7728 80.4293 16.2358 80.0229 15.5391C79.6165 14.8424 79.4133 14.0151 79.4133 13.0571V6.61262H81.2639V13.0571C81.2639 14.0006 81.5397 14.7263 82.0912 15.2343C82.6573 15.7278 83.3032 15.9745 84.0289 15.9745C84.7547 15.9745 85.3933 15.7278 85.9449 15.2343C86.5109 14.7263 86.794 14.0006 86.794 13.0571V6.61262H88.6446Z" fill="#FCFCFD"/>
<path d="M96.5042 6.3949C97.6219 6.3949 98.5508 6.62713 99.2911 7.0916C100.031 7.55607 100.583 8.18745 100.946 8.98576C101.323 9.78406 101.512 10.684 101.512 11.6855V12.7523H93.1514C93.2385 13.3619 93.4489 13.9207 93.7828 14.4287C94.1166 14.9367 94.552 15.3432 95.0891 15.648C95.6261 15.9383 96.243 16.0834 96.9397 16.0834C97.7235 16.0834 98.4565 15.8875 99.1386 15.4956C99.8208 15.0892 100.394 14.6465 100.859 14.1675L100.837 16.1052C100.634 16.3519 100.329 16.6132 99.9224 16.889C99.5305 17.1502 99.0733 17.3679 98.5508 17.5421C98.0428 17.7308 97.5058 17.8252 96.9397 17.8252C95.8366 17.8252 94.8568 17.5639 94.0005 17.0414C93.1441 16.5188 92.4692 15.8294 91.9757 14.973C91.4967 14.1022 91.2572 13.1515 91.2572 12.1209C91.2572 11.0904 91.4822 10.1397 91.9321 9.26879C92.3821 8.39791 92.999 7.70121 93.7828 7.17869C94.5811 6.65616 95.4882 6.3949 96.5042 6.3949ZM96.5042 8.13665C95.6043 8.13665 94.8641 8.44146 94.2835 9.05107C93.7029 9.64617 93.3401 10.3719 93.1949 11.2283H99.7483C99.6757 10.517 99.4725 9.93646 99.1386 9.48651C98.8193 9.03656 98.4274 8.70272 97.963 8.485C97.4985 8.25277 97.0123 8.13665 96.5042 8.13665Z" fill="#FCFCFD"/>
<path d="M107.695 6.3949C108.334 6.3949 108.929 6.48924 109.48 6.67793C110.032 6.85211 110.431 7.03354 110.678 7.22223V9.13816C110.373 8.90592 109.959 8.68095 109.437 8.46323C108.914 8.24551 108.377 8.13665 107.826 8.13665C107.143 8.13665 106.628 8.29631 106.28 8.61563C105.946 8.93495 105.779 9.26879 105.779 9.61714C105.779 9.89292 105.873 10.176 106.062 10.4662C106.265 10.742 106.614 10.967 107.107 11.1412L108.936 11.7943C109.647 12.0411 110.177 12.3967 110.525 12.8612C110.874 13.3256 111.048 13.8699 111.048 14.4941C111.048 15.1037 110.874 15.6625 110.525 16.1705C110.192 16.6785 109.72 17.0849 109.11 17.3897C108.515 17.68 107.826 17.8252 107.042 17.8252C106.621 17.8252 106.178 17.7671 105.714 17.651C105.264 17.5494 104.857 17.426 104.495 17.2809C104.132 17.1212 103.863 16.9833 103.689 16.8672V14.9513C103.892 15.0964 104.175 15.2633 104.538 15.452C104.915 15.6262 105.315 15.7786 105.736 15.9092C106.156 16.0253 106.548 16.0834 106.911 16.0834C107.593 16.0834 108.13 15.931 108.522 15.6262C108.929 15.3214 109.132 14.944 109.132 14.4941C109.132 14.1457 108.994 13.8699 108.718 13.6667C108.457 13.4635 108.072 13.2676 107.564 13.0789L105.953 12.491C105.111 12.1717 104.553 11.7726 104.277 11.2936C104.001 10.8001 103.863 10.2413 103.863 9.61714C103.863 8.68821 104.212 7.91893 104.908 7.30932C105.605 6.6997 106.534 6.3949 107.695 6.3949Z" fill="#FCFCFD"/>
<path d="M116.774 3.47746V6.61262H119.953V8.28905H116.774V14.6682C116.774 15.1182 116.89 15.4738 117.122 15.7351C117.354 15.9963 117.71 16.1269 118.189 16.1269C118.625 16.1269 118.987 16.0761 119.278 15.9745C119.568 15.8584 119.822 15.7351 120.04 15.6044V17.0631C119.749 17.2954 119.437 17.4768 119.104 17.6074C118.784 17.7526 118.349 17.8252 117.797 17.8252C116.868 17.8252 116.164 17.5494 115.685 16.9978C115.221 16.4318 114.989 15.6843 114.989 14.7553V8.28905H112.899V7.76653C113.61 7.44721 114.205 6.92468 114.684 6.19895C115.163 5.4587 115.584 4.55154 115.947 3.47746H116.774Z" fill="#FCFCFD"/>
<path d="M47.4085 29.0079C48.323 29.0079 49.114 29.1385 49.7817 29.3998C50.4494 29.6465 51.0299 29.9876 51.5234 30.423V33.4711C51.1751 33.2098 50.8122 32.9558 50.4348 32.7091C50.0575 32.4623 49.6293 32.2591 49.1503 32.0995C48.6858 31.9398 48.1343 31.86 47.4956 31.86C46.6248 31.86 45.8337 32.0704 45.1225 32.4914C44.4113 32.9123 43.8452 33.4784 43.4243 34.1896C43.0034 34.9008 42.7929 35.7136 42.7929 36.628C42.7929 37.5279 43.0034 38.3408 43.4243 39.0665C43.8452 39.7777 44.4113 40.3438 45.1225 40.7647C45.8337 41.1711 46.6248 41.3743 47.4956 41.3743C48.4681 41.3743 49.2809 41.2292 49.9341 40.9389C50.6018 40.6341 51.2041 40.264 51.7412 39.8285V42.7677C51.2477 43.2177 50.6308 43.5805 49.8905 43.8563C49.1503 44.1176 48.323 44.2482 47.4085 44.2482C46.3635 44.2482 45.3765 44.0668 44.4476 43.7039C43.5186 43.3265 42.6986 42.804 41.9873 42.1363C41.2761 41.4542 40.7173 40.6486 40.3109 39.7197C39.9045 38.7907 39.7013 37.7602 39.7013 36.628C39.7013 35.4959 39.9045 34.4654 40.3109 33.5364C40.7173 32.6075 41.2761 31.8092 41.9873 31.1415C42.6986 30.4593 43.5186 29.9368 44.4476 29.5739C45.3765 29.1966 46.3635 29.0079 47.4085 29.0079Z" fill="#FCFCFD"/>
<path d="M60.5152 32.6438C61.6329 32.6438 62.5691 33.0212 63.3238 33.7759C64.0786 34.5307 64.456 35.6628 64.456 37.1723V43.9216H61.6909L61.6692 37.5425C61.6692 36.8022 61.4877 36.2507 61.1249 35.8878C60.7765 35.5249 60.2903 35.3435 59.6661 35.3435C59.1726 35.3435 58.7082 35.5032 58.2727 35.8225C57.8518 36.1418 57.489 36.5192 57.1841 36.9546V43.9216H54.4191V28.2458H57.1841V34.4944C57.518 34.0444 57.9679 33.6235 58.534 33.2316C59.1146 32.8397 59.775 32.6438 60.5152 32.6438Z" fill="#FCFCFD"/>
<path d="M71.9891 32.6438C72.5842 32.6438 73.1865 32.7817 73.7961 33.0574C74.4057 33.3332 74.9137 33.7033 75.3202 34.1678V32.9268H78.0852V43.9216H75.3202V42.071C75.0008 42.6661 74.5364 43.1814 73.9268 43.6168C73.3171 44.0378 72.6059 44.2482 71.7931 44.2482C70.9077 44.2482 70.0876 44.0232 69.3329 43.5733C68.5926 43.1233 67.9975 42.4702 67.5476 41.6138C67.0976 40.7575 66.8727 39.7197 66.8727 38.5004C66.8727 37.2812 67.0976 36.2361 67.5476 35.3653C68.012 34.4944 68.6289 33.8267 69.3982 33.3623C70.182 32.8833 71.0456 32.6438 71.9891 32.6438ZM72.5551 35.3435C71.9745 35.3435 71.4738 35.4959 71.0529 35.8007C70.6465 36.091 70.3271 36.4756 70.0949 36.9546C69.8627 37.4336 69.7465 37.9489 69.7465 38.5004C69.7465 39.3278 69.9933 40.0317 70.4868 40.6123C70.9948 41.1929 71.6625 41.4832 72.4898 41.4832C72.9833 41.4832 73.4405 41.3526 73.8614 41.0913C74.2969 40.83 74.6452 40.4672 74.9065 40.0027C75.1823 39.5237 75.3202 38.9504 75.3202 38.2827V36.7151C74.9283 36.2942 74.5001 35.9604 74.0356 35.7136C73.5857 35.4669 73.0922 35.3435 72.5551 35.3435Z" fill="#FCFCFD"/>
<path d="M88.4051 36.0184C87.9406 35.7572 87.4544 35.6265 86.9464 35.6265C86.3077 35.6265 85.7779 35.837 85.357 36.2579C84.9361 36.6643 84.566 37.1723 84.2467 37.782V43.9216H81.4816V32.9268H84.2467V34.9951C84.624 34.342 85.0667 33.7977 85.5747 33.3623C86.0973 32.9268 86.6851 32.7091 87.3383 32.7091C87.7302 32.7091 88.0858 32.7744 88.4051 32.905V36.0184Z" fill="#FCFCFD"/>
<path d="M94.8931 32.6438C95.4882 32.6438 96.0906 32.7817 96.7002 33.0574C97.3098 33.3332 97.8178 33.7033 98.2242 34.1678V32.9268H100.989V43.6386C100.989 44.8869 100.713 45.9392 100.162 46.7955C99.6104 47.6664 98.8774 48.3268 97.963 48.7768C97.0485 49.2412 96.047 49.4735 94.9584 49.4735C93.986 49.4735 93.1877 49.3283 92.5635 49.038C91.9394 48.7477 91.3588 48.4139 90.8218 48.0365V45.4239C91.1556 45.6271 91.504 45.8448 91.8668 46.0771C92.2442 46.3093 92.6651 46.5052 93.1296 46.6649C93.6086 46.8246 94.1601 46.9044 94.7843 46.9044C95.4374 46.9044 96.0253 46.781 96.5478 46.5343C97.0703 46.2875 97.4767 45.9392 97.767 45.4892C98.0718 45.0538 98.2242 44.553 98.2242 43.987V42.071C97.9049 42.6661 97.4404 43.1814 96.8308 43.6168C96.2212 44.0378 95.51 44.2482 94.6972 44.2482C93.8118 44.2482 92.9917 44.0232 92.2369 43.5733C91.4967 43.1233 90.9016 42.4702 90.4517 41.6138C90.0017 40.7575 89.7767 39.7197 89.7767 38.5004C89.7767 37.2812 90.0017 36.2361 90.4517 35.3653C90.9161 34.4944 91.533 33.8267 92.3023 33.3623C93.0861 32.8833 93.9497 32.6438 94.8931 32.6438ZM95.4592 35.3653C94.8786 35.3653 94.3779 35.5177 93.9569 35.8225C93.5505 36.1128 93.2312 36.4974 92.999 36.9764C92.7667 37.4409 92.6506 37.9489 92.6506 38.5004C92.6506 39.3278 92.8974 40.0317 93.3909 40.6123C93.8989 41.1784 94.5665 41.4614 95.3939 41.4614C95.8874 41.4614 96.3446 41.338 96.7655 41.0913C97.201 40.83 97.5493 40.4672 97.8106 40.0027C98.0863 39.5237 98.2242 38.9504 98.2242 38.2827V36.7151C97.8323 36.2942 97.4042 35.9676 96.9397 35.7354C96.4897 35.4886 95.9962 35.3653 95.4592 35.3653Z" fill="#FCFCFD"/>
<path d="M109.197 32.6438C110.271 32.6438 111.193 32.876 111.962 33.3405C112.746 33.8049 113.341 34.4508 113.748 35.2782C114.169 36.091 114.379 37.0345 114.379 38.1085V39.2842H106.41C106.556 40.0245 106.918 40.6196 107.499 41.0695C108.08 41.5195 108.791 41.7444 109.633 41.7444C110.431 41.7444 111.157 41.5848 111.81 41.2655C112.463 40.9461 112.986 40.6196 113.377 40.2857L113.356 42.8548C113.007 43.1596 112.485 43.4717 111.788 43.791C111.106 44.0958 110.351 44.2482 109.524 44.2482C108.435 44.2482 107.441 44.0015 106.541 43.508C105.656 43.0145 104.944 42.3395 104.407 41.4832C103.885 40.6268 103.624 39.6471 103.624 38.544C103.624 37.4699 103.863 36.4902 104.342 35.6048C104.821 34.7194 105.482 34.0082 106.323 33.4711C107.165 32.9196 108.123 32.6438 109.197 32.6438ZM109.132 35.0605C108.45 35.0605 107.876 35.2709 107.412 35.6918C106.948 36.1128 106.628 36.6788 106.454 37.3901H111.723C111.665 36.6063 111.374 36.0257 110.852 35.6483C110.329 35.2564 109.756 35.0605 109.132 35.0605Z" fill="#FCFCFD"/>
<path d="M123.001 32.6438C123.944 32.6438 124.8 32.8833 125.57 33.3623C126.354 33.8267 126.97 34.4944 127.42 35.3653C127.885 36.2361 128.117 37.2812 128.117 38.5004C128.117 39.7197 127.885 40.7575 127.42 41.6138C126.97 42.4702 126.368 43.1233 125.613 43.5733C124.873 44.0232 124.068 44.2482 123.197 44.2482C122.384 44.2482 121.673 44.0378 121.063 43.6168C120.453 43.1814 119.989 42.6661 119.67 42.071V43.9216H116.905V28.2458H119.67V34.1678C120.076 33.7033 120.577 33.3332 121.172 33.0574C121.781 32.7817 122.391 32.6438 123.001 32.6438ZM122.435 35.3653C121.898 35.3653 121.397 35.4886 120.932 35.7354C120.482 35.9676 120.061 36.2942 119.67 36.7151V38.2827C119.655 38.9504 119.778 39.5237 120.04 40.0027C120.315 40.4672 120.671 40.83 121.107 41.0913C121.542 41.338 122.006 41.4614 122.5 41.4614C123.327 41.4614 123.988 41.1784 124.481 40.6123C124.989 40.0317 125.243 39.3278 125.243 38.5004C125.243 37.9489 125.127 37.4409 124.895 36.9764C124.663 36.4974 124.336 36.1128 123.915 35.8225C123.494 35.5177 123.001 35.3653 122.435 35.3653Z" fill="#FCFCFD"/>
<path d="M135.106 32.6438C135.701 32.6438 136.303 32.7817 136.913 33.0574C137.523 33.3332 138.031 33.7033 138.437 34.1678V32.9268H141.202V43.9216H138.437V42.071C138.118 42.6661 137.653 43.1814 137.044 43.6168C136.434 44.0378 135.723 44.2482 134.91 44.2482C134.025 44.2482 133.204 44.0232 132.45 43.5733C131.709 43.1233 131.114 42.4702 130.664 41.6138C130.214 40.7575 129.989 39.7197 129.989 38.5004C129.989 37.2812 130.214 36.2361 130.664 35.3653C131.129 34.4944 131.746 33.8267 132.515 33.3623C133.299 32.8833 134.162 32.6438 135.106 32.6438ZM135.672 35.3435C135.091 35.3435 134.591 35.4959 134.17 35.8007C133.763 36.091 133.444 36.4756 133.212 36.9546C132.979 37.4336 132.863 37.9489 132.863 38.5004C132.863 39.3278 133.11 40.0317 133.604 40.6123C134.112 41.1929 134.779 41.4832 135.607 41.4832C136.1 41.4832 136.557 41.3526 136.978 41.0913C137.414 40.83 137.762 40.4672 138.023 40.0027C138.299 39.5237 138.437 38.9504 138.437 38.2827V36.7151C138.045 36.2942 137.617 35.9604 137.152 35.7136C136.702 35.4669 136.209 35.3435 135.672 35.3435Z" fill="#FCFCFD"/>
<path d="M149.606 32.6438C150.419 32.6438 151.086 32.7744 151.609 33.0357C152.132 33.2969 152.545 33.5509 152.85 33.7977V36.345C152.473 36.0692 152.044 35.837 151.565 35.6483C151.101 35.4596 150.528 35.3653 149.845 35.3653C149.294 35.3653 148.779 35.5032 148.3 35.7789C147.835 36.0547 147.465 36.4248 147.189 36.8893C146.914 37.3538 146.776 37.8836 146.776 38.4787C146.776 39.3786 147.066 40.1188 147.646 40.6994C148.227 41.28 148.96 41.5703 149.845 41.5703C150.528 41.5703 151.101 41.4832 151.565 41.309C152.044 41.1203 152.473 40.8881 152.85 40.6123V43.1378C152.545 43.3991 152.132 43.6531 151.609 43.8999C151.086 44.1321 150.419 44.2482 149.606 44.2482C148.488 44.2482 147.494 43.987 146.623 43.4644C145.767 42.9274 145.085 42.2234 144.577 41.3526C144.083 40.4672 143.836 39.5092 143.836 38.4787C143.836 37.7094 143.974 36.9764 144.25 36.2797C144.54 35.583 144.947 34.9661 145.469 34.4291C145.992 33.8775 146.601 33.4421 147.298 33.1228C148.009 32.8034 148.779 32.6438 149.606 32.6438Z" fill="#FCFCFD"/>
<path d="M158.075 28.2458V37.8255L162.56 32.9268H166.022L161.276 37.6949L166.262 43.9216H162.778L159.447 39.5455L158.075 40.9171V43.9216H155.31V28.2458H158.075Z" fill="#FCFCFD"/>
</svg>
